<?xml version="1.0" standalone="no"?>
<!DOCTYPE svg PUBLIC "-//W3C//DTD SVG 20010904//EN"
 "http://www.w3.org/TR/2001/REC-SVG-20010904/DTD/svg10.dtd">
<svg version="1.0" xmlns="http://www.w3.org/2000/svg"
 width="512.000000pt" height="512.000000pt" viewBox="0 0 512.000000 512.000000"
 preserveAspectRatio="xMidYMid meet">

<g transform="translate(0.000000,512.000000) scale(0.100000,-0.100000)"
fill="#419636" stroke="#419636">
<path d="M2112 4623 c-366 -304 -433 -363 -441 -393 -6 -19 -17 -120 -26 -225
-8 -104 -33 -397 -55 -650 -22 -253 -40 -468 -40 -477 0 -11 -95 -89 -257
-211 -142 -107 -263 -200 -270 -208 -20 -24 -365 -2257 -353 -2280 6 -10 19
-23 30 -29 26 -14 3554 -14 3580 0 42 22 42 34 10 413 -17 199 -36 372 -42
385 -23 45 -101 38 -113 -10 -3 -13 6 -152 20 -311 14 -158 25 -303 25 -322
l0 -35 -192 2 -193 3 -142 1640 c-78 902 -141 1648 -140 1658 1 14 53 -24 202
-149 110 -91 203 -169 207 -173 3 -3 16 -115 28 -249 11 -133 23 -248 26 -256
8 -21 49 -39 73 -31 51 16 52 28 27 317 -13 152 -28 273 -34 281 -7 8 -133
114 -281 237 l-268 224 -17 216 c-10 118 -22 229 -28 245 -7 22 -117 119 -436
384 -234 195 -435 356 -447 359 -16 3 -127 -85 -453 -355z m366 -379 c-27 -24
-711 -455 -715 -450 -10 10 28 391 40 403 7 7 163 138 347 291 l335 280 3
-256 c2 -197 -1 -259 -10 -268z m555 192 c163 -136 297 -252 297 -257 0 -9
327 -3817 333 -3876 l3 -33 -518 0 -518 0 0 2251 0 2251 53 -44 c28 -24 186
-156 350 -292z m-544 -633 l0 -298 -397 -252 c-218 -139 -398 -250 -400 -249
-7 7 51 612 59 621 7 7 726 470 737 474 1 1 2 -133 1 -296z m1 -745 l0 -293
-58 -36 c-31 -19 -225 -143 -430 -274 -205 -131 -374 -236 -376 -234 -9 9 50
609 60 619 15 15 787 509 797 509 4 1 7 -131 7 -291z m-1014 -1034 c-31 -351
-72 -826 -92 -1054 -19 -228 -41 -478 -47 -555 l-12 -140 -262 -3 -263 -2 6
27 c2 16 76 489 164 1053 88 564 161 1028 163 1032 5 14 392 299 395 290 1 -5
-22 -297 -52 -648z m1014 293 l0 -293 -466 -297 c-257 -164 -467 -297 -468
-295 -2 2 10 142 25 312 20 229 30 311 40 317 8 5 203 130 434 278 231 148
423 270 428 270 4 1 7 -131 7 -292z m0 -741 l0 -294 -496 -317 c-273 -174
-498 -314 -501 -311 -8 8 45 608 54 617 9 8 937 599 941 599 1 0 2 -132 2
-294z m0 -876 l0 -430 -518 0 -518 0 9 103 c5 56 12 105 16 110 6 6 1003 645
1009 646 1 1 2 -192 2 -429z"/>
<path d="M4042 2343 c-28 -11 -32 -42 -21 -160 7 -81 15 -123 26 -135 22 -24
68 -23 94 3 17 17 20 29 15 67 -3 26 -8 79 -11 117 -8 84 -25 115 -63 114 -15
0 -33 -3 -40 -6z"/>
<path d="M4090 1650 c-23 -23 -23 -23 -9 -166 12 -117 24 -144 66 -144 35 0
60 16 66 42 3 13 0 76 -7 142 -9 96 -15 121 -31 132 -27 20 -62 17 -85 -6z"/>
</g>
</svg>
