<?xml version="1.0" encoding="UTF-8"?>
<svg version="1.1" viewBox="0 0 2048 2048" width="1280" height="1280" xmlns="http://www.w3.org/2000/svg">
<path transform="translate(1070,191)" d="m0 0h888l20 2 16 5 13 7 13 10 11 12 9 16 5 13 3 11v161l-7 21-7 14-8 10-6 7-12 9-16 8-13 4-11 2h-54l1 128 21 7 19 9 16 10 16 13 12 11 9 11 8 10 8 13 8 15 9 25 5 21 2 11v217l-7 11-8 7-7 3-5 1h-7l-12-4-9-9-4-9-1-4-1-74h-506l-20 3-17 5-16 7-14 9-10 8-10 9-9 10-10 15-10 21-5 16-3 17-1 28v340l1 22 4 21 7 19 9 17 12 16 8 9 8 7 13 9 14 8 14 6 18 5 22 3 502 1v-427l4-10 7-8 6-4 6-2h13l9 3 9 8 6 11v566l-6 29-8 24-10 20-10 15-8 10-9 10-11 11-13 10-19 12-20 9-15 5-17 4-24 3h-728l-24-3-19-5-19-7-21-11-14-10-11-9-10-9-7-8-13-17-10-17-7-15-8-24-4-21-1-9-1-581-8 7-24 24-2 3h-2l-2 4-296 296h-2l-2 4h-2l-2 4h-2l-2 4h-2l-2 4h-2l-2 4h-2l-2 4h-2l-2 4h-2v2l-8 7-17 17-1 2h168l24 2 23 5 21 8 16 8 18 12 11 9 10 9v2h2l9 11 8 10 12 20 9 21 5 16 4 19 2 28-2 24-5 23-6 18-10 21-12 18-8 10-11 12-12 11-17 12-18 10-20 8-23 6-13 2-12 1-305 1-100-1-10-4-7-6-5-9-2-6v-9l4-11 7-8 8-5 13-2h68v-236l-267 1-19 3-18 6-17 9-14 11-12 12-10 14-8 16-5 13-4 22v23l3 17 6 18 9 17 10 13 8 9 13 10 13 8 16 7 14 4 13 2 28 1h24l15 1 10 5 5 4 6 10 1 4v13l-4 9-7 8-9 5-5 1h-64l-24-3-22-6-19-8-17-9-14-10-13-11-14-14-13-17-10-17-8-17-6-19-6-27v-41l7-30 7-19 8-16 9-15 11-14 9-10 9-9 14-11 14-9 19-10 23-8 20-4 21-2h150l-3-5-11-15-10-17-9-21-5-16-4-21-1-7v-31l4-25 5-18 8-19 9-17 10-14 9-11 9-9 6-7 6-5 6-7 6-5 6-7 6-5 109-109 5-6 7-6 5-6 6-5 6-7h2l2-4h2l2-4 6-5 7-8 75-75 9-6 8-3h10l11 4 8 7 6 12v14l-5 10-9 10-38 38-4 5 10 9 156 156 4-2 7-7 7-8 16-15 10-10 1-2h2v-2h2v-2h2v-2h2v-2h2v-2h2v-2h2v-2h2v-2h2v-2h2v-2h2v-2h2v-2h2l2-4h2l2-4h2l2-4h2l2-4h2l2-4h2v-2h2v-2h2v-2h2v-2h2v-2h2v-2h2v-2l8-7 19-19 5-6h2v-2h2l2-4h2l2-4h2l2-4h2l2-4h2l2-4h2l2-4 8-8h2v-2l8-7 9-10 10-13 7-12 7-18 3-13 1-10v-22l-2-17-7-21-8-15-9-12-9-10-12-10-13-8-15-7-13-4-18-3h-21l-18 3-18 6-17 9-13 10-15 14-30 30-10 5-3 1h-11l-11-4-7-6-6-12-1-4v-8l4-11 5-7h2l2-4 24-24h2l2-4h2l1-3 8-7 12-10 15-10 21-11 20-7 16-4 13-2 13-1h18l20 2 25 6 16 6 16 8 16 10 14 11 1 1 1-51 3-20 5-19 6-16 8-16 6-10 10-14 11-13 10-10 11-9 16-11 23-12 23-8 1-128h-55l-14-3-14-5-15-9-13-12-9-12-8-17-4-13-1-5v-159l4-16 5-12 8-13 11-12 9-8 14-8 18-6zm-3 60-8 2-10 7-6 10-1 3v148l4 10 8 8 10 4h83v-192zm141 0-1 3v189l4 1h99l6-1v-192zm169 0-1 1v191l105 1 4-1v-192zm168 0v192l105 1 3-1 1-184-1-8zm169 0-1 192h109v-192zm168 0v192h83l9-3 8-7 4-7 2-9v-140l-2-8-5-8-7-6-7-3-5-1zm-705 252-2 3-1 133-3 12-7 14-11 12-11 7-19 7-18 8-10 6-9 7-10 9-10 11-10 16-7 15-6 21-1 8v896l2 14 5 17 8 17 9 13 9 11 11 10 13 9 15 8 18 6 18 3 14 1h684l32-1 17-3 18-6 19-10 14-11 12-12 10-14 6-10 6-15 4-16 2-18v-64l-480-1-31-1-24-3-23-6-20-8-23-12-16-12-10-8-18-18-12-16-8-13-10-19-8-21-5-20-3-22-1-22v-346l1-26 4-25 6-21 8-20 11-20 10-14 8-10 12-13 11-10 18-13 16-9 14-7 16-6 19-5 20-3 16-1h501l1-1v-63l-2-20-6-21-8-16-7-11-9-11-8-8-15-11-12-7-21-8-12-5-10-6-8-7-9-14-4-10-2-12-1-131-1-1zm-623 613-182 182-7 8-10 14-8 15-6 18-3 17v24l4 20 6 17 9 16 9 12 14 14 16 11 16 8 16 5 19 3h18l19-3 18-6 19-10 14-11 12-12 2-1v-2h2v-2h2v-2h2l6-7 17-17 5-4v-2h2v-2h2v-2h2v-2h2l4-4v-2h2v-2h2l4-4v-2h2v-2h2l6-7 8-7v-2h2v-2l4-2 6-6v-2h2l4-4v-2l4-2 4-4v-2l4-2 26-26v-2l4-2 16-17 18-18 5-4 2-4-165-165zm-57 444-1 3v234h236l35-1 20-4 14-5 17-9 11-8 12-11 8-9 9-14 7-15 5-17 2-11v-29l-4-20-6-15-6-12-10-14-11-12-14-11-14-8-14-6-15-4-15-2z" fill="#489236"/>
<path transform="translate(1625,998)" d="m0 0h92l16 2 10 4 8 6 8 8 7 13 2 9v104h96l15 2 10 4 9 7 7 7 7 14 2 8v109l-3 11-5 10-10 11-10 6-15 4-102 1-1 103-2 9-6 12-10 11-10 6-16 4h-107l-11-3-8-4-8-6-8-10-5-12-2-10v-101h-104l-12-3-11-7-5-4-9-13-4-11-1-7v-103l2-10 7-14 9-10 10-6 11-4 9-1h98v-102l3-12 5-10 9-10 9-6 9-4zm10 60-1 113-2 9-6 10-9 8-10 4-8 1-110 1v73l2 1 114 1 11 4 9 7 6 10 3 9 1 114 5 1h62l6-1 1-109 2-11 4-8 8-9 9-5 6-2 24-1h91l1-1v-73l-112-1-12-3-10-7-6-8-4-10-1-11-1-106z" fill="#489236"/>
</svg>
